<?xml version="1.0" standalone="no"?>
<!DOCTYPE svg PUBLIC "-//W3C//DTD SVG 20010904//EN"
 "http://www.w3.org/TR/2001/REC-SVG-20010904/DTD/svg10.dtd">
<svg version="1.0" xmlns="http://www.w3.org/2000/svg"
 width="1205.000000pt" height="980.000000pt" viewBox="0 0 1205.000000 980.000000"
 preserveAspectRatio="xMidYMid meet">

<g transform="translate(0.000000,980.000000) scale(0.100000,-0.100000)"
fill="#000000" stroke="none">
<path d="M0 4900 l0 -4900 6025 0 6025 0 0 4900 0 4900 -6025 0 -6025 0 0
-4900z m6655 4025 c1086 -128 2039 -712 2667 -1635 150 -219 236 -373 377
-671 117 -249 209 -321 451 -348 384 -44 380 -43 380 -115 0 -27 -6 -48 -15
-56 -13 -11 -113 -12 -498 -7 l-482 7 -25 28 c-14 15 -51 93 -83 172 -313 798
-852 1427 -1567 1832 -369 210 -744 336 -1195 404 -170 26 -666 27 -843 1
-382 -54 -731 -161 -1052 -322 -339 -169 -611 -366 -885 -640 -175 -175 -322
-353 -451 -550 -157 -239 -195 -314 -370 -720 -38 -87 -78 -169 -89 -182 l-20
-22 -491 -7 c-491 -7 -492 -7 -503 14 -6 11 -11 37 -11 56 0 52 28 66 167 81
274 31 356 46 423 77 89 43 155 113 205 218 271 574 484 899 818 1246 316 329
649 576 1047 774 452 227 887 343 1435 384 103 8 484 -4 610 -19z m-4690
-3486 c67 -25 110 -62 206 -177 44 -54 194 -216 332 -362 l252 -264 5 409 5
410 113 3 112 3 0 -555 0 -554 -22 -6 c-43 -11 -185 -6 -234 9 -64 20 -116 61
-200 160 -90 104 -133 152 -346 376 -98 103 -198 209 -222 235 l-45 49 -1
-412 0 -413 -115 0 -115 0 0 554 0 555 53 4 c79 6 167 -3 222 -24z m6541 5
c13 -11 84 -120 157 -244 230 -388 486 -825 492 -841 5 -14 -6 -17 -64 -23
-141 -14 -198 9 -265 109 -66 97 -59 95 -426 95 -192 0 -330 -4 -353 -11 -24
-6 -53 -26 -75 -51 -103 -115 -129 -136 -177 -144 -58 -8 -181 16 -177 35 2
11 393 683 549 944 65 109 87 130 158 148 50 14 155 3 181 -17z m-4766 -539
l0 -555 -110 0 -110 0 0 548 c0 302 3 552 7 555 3 4 53 7 110 7 l103 0 0 -555z
m1744 538 c8 -27 2 -191 -8 -200 -4 -4 -220 -9 -479 -11 -523 -4 -518 -3 -536
-67 -14 -52 3 -101 42 -122 28 -16 76 -19 432 -23 l400 -5 57 -28 c109 -53
161 -150 162 -302 0 -62 -5 -106 -17 -142 -24 -69 -92 -144 -159 -174 l-53
-24 -535 0 -535 0 0 110 0 110 502 5 503 5 26 26 c52 52 39 153 -23 177 -17 6
-173 12 -403 15 -322 5 -382 8 -425 23 -144 50 -220 158 -219 309 0 102 28
177 92 246 83 89 74 88 664 89 474 0 507 -1 512 -17z m1764 -95 l-3 -113 -481
-2 c-343 -1 -488 -4 -503 -13 -38 -20 -55 -106 -30 -152 23 -42 54 -45 452
-47 408 -2 433 -5 509 -57 49 -34 96 -101 114 -162 22 -70 18 -191 -7 -259
-28 -72 -94 -144 -162 -174 l-52 -24 -538 -3 -538 -3 3 113 3 113 500 5 c537
5 530 5 554 57 28 61 5 134 -48 155 -15 6 -171 11 -391 13 -432 3 -467 9 -556
87 -60 53 -87 119 -92 224 -7 145 37 243 134 300 87 51 102 53 637 53 l498 1
-3 -112z m2538 83 c54 -25 80 -50 219 -207 153 -173 532 -575 548 -582 4 -2 7
181 7 407 l0 411 115 0 115 0 0 -554 c0 -496 -2 -554 -16 -560 -31 -12 -201
-6 -243 9 -64 22 -125 71 -194 154 -34 42 -86 103 -116 136 -52 58 -78 86
-316 335 -104 110 -160 160 -177 160 -4 0 -8 -178 -8 -395 l0 -395 -115 0
-115 0 0 548 c0 302 3 552 7 555 3 4 56 7 117 7 102 0 116 -2 172 -29z m-6813
-1762 c16 -19 53 -97 83 -174 191 -487 458 -899 814 -1255 516 -517 1146 -846
1840 -959 536 -87 1099 -39 1615 139 957 331 1712 1080 2106 2090 30 77 64
147 79 163 l27 28 483 6 c462 6 484 5 496 -12 21 -28 18 -89 -5 -109 -15 -13
-75 -24 -248 -46 -266 -34 -311 -46 -386 -101 -70 -52 -106 -103 -169 -237
-95 -204 -127 -267 -189 -377 -538 -953 -1374 -1607 -2374 -1859 -313 -79
-569 -110 -905 -110 -764 0 -1464 218 -2095 652 -574 395 -1069 1002 -1354
1661 -22 52 -54 115 -71 141 -61 94 -164 171 -267 199 -37 10 -132 23 -376 50
-118 13 -144 41 -120 130 l6 24 491 -5 490 -5 29 -34z"/>
<path d="M8251 4979 c-67 -116 -120 -213 -118 -215 2 -2 117 -3 255 -2 l252 3
-39 65 c-21 36 -77 131 -125 213 -47 81 -90 147 -94 147 -5 0 -63 -95 -131
-211z"/>
</g>
</svg>
